<svg version="1.1" xmlns="http://www.w3.org/2000/svg" xmlns:xlink="http://www.w3.org/1999/xlink" width="101.28424" height="120.04473" viewBox="0,0,101.28424,120.04473"><g transform="translate(-238.0421,-64.48246)"><g data-paper-data="{&quot;isPaintingLayer&quot;:true}" fill-rule="nonzero" stroke-linecap="round" stroke-linejoin="miter" stroke-miterlimit="10" stroke-dasharray="" stroke-dashoffset="0" style="mix-blend-mode: normal"><path d="M323.5421,65.7772c3.471,-0.006 7.29,1.446 10,3.75c2.306,1.962 4.521,5.173 4.25,8.25c-0.25,2.792 -3.639,4.688 -5.75,6.75c-1.683,1.657 -3.265,5.45 -5.75,5c-3.169,-0.602 -4.417,-4.954 -7,-7c-1.891,-1.5 -6.499,-0.905 -6.5,-3.25c0.124,-3.923 4.4,-6.56 6.75,-9.5c1.176,-1.471 2.11,-3.997 4,-4z" fill="#ff9400" stroke="none" stroke-width="1"/><path d="M316.0421,76.0272c3.38,-0.42 6.917,1.42 9.619,3.498c2.144,1.648 4.985,4.497 4.381,7.252c-0.99,4.494 -5.069,8.241 -8.75,11.25c-0.905,0.746 -1.74,-1.381 -2.75,-2c-1.365,-1.13 -2.737,-2.283 -4.369,-3.248c-2.66,-1.575 -6.754,-1.732 -8.131,-4.502c-1.055,-2.133 1.06,-4.606 2.5,-6.25c2.009,-2.581 4.423,-5.621 7.5,-6z" fill="#b5b5b5" stroke="none" stroke-width="1"/><path d="M246.7921,158.7772c3.218,-2.245 7.914,-6.661 11,-4.25c4.407,3.367 5.769,10.868 4.25,16.25c-1.084,3.842 -6.974,4.136 -10.5,6.25c-2.22,1.134 -4.499,2.165 -6.75,3.5c-1.511,0.893 -2.745,2.054 -4.5,2.75c-0.495,0.195 -1.822,1.097 -1.5,-0.5c1.292,-6.369 3.429,-12.605 5.5,-18.75c0.595,-1.768 0.923,-4.122 2.5,-5.25z" fill="#ffffcc" stroke="none" stroke-width="1"/><path d="M265.7921,135.0272c12.758,-15.547 25.588,-31.136 38.5,-46.75c3.24,-3.902 1.6,-2.75 3,-3.25c1.9,-0.75 4.15,-0.65 6.25,0c2.35,0.7 4.55,2.1 6.25,4c1.65,1.8 3.2,4.2 3.5,6.75c0.15,1.55 0.95,0.1 -2.25,4.25c-12.85,16.1 -26.222,31.981 -39.25,48c-5.479,6.737 -10.785,13.43 -16.25,20c-1.317,1.77 -1.171,2.701 -2.25,2.75c-1.05,0.035 -1.423,-1.588 -2.25,-2.25c-0.848,-0.678 -1.681,-1.564 -2.75,-1.75c-1.015,-0.176 -1.974,0.668 -3,0.75c-1.082,0.087 -2.693,0.658 -3.25,-0.25c-0.692,-1.14 0.436,-2.905 0.5,-4.5c0.099,-0.742 0.551,-1.678 0,-2.5c-0.529,-0.696 -1.727,-0.426 -2.5,-0.75c-1.106,-0.474 -4.592,0.811 -3.25,-1.25c5.347,-8.293 12.611,-15.487 19,-23.25z" fill="#ffff00" stroke="#000000" stroke-width="2"/><path d="M315.81581,89.31902l-62.0237,77.45818" fill="none" stroke="#000000" stroke-width="2"/><path d="M239.0421,182.5272c0,0 0.143,-0.839 0.25,-1.25c0.393,-1.505 0.803,-3.01 1.25,-4.5c0.303,-1.009 0.683,-1.996 1,-3c0.682,-2.16 1.37,-4.325 2,-6.5c0.286,-0.989 0.454,-2.014 0.75,-3c0.454,-1.513 1.5,-4.5 1.5,-4.5" fill="none" stroke="#000000" stroke-width="2"/><path d="M239.2921,183.5272c0,0 0.347,0.068 0.5,0c0.613,-0.273 1.185,-0.637 1.75,-1c0.602,-0.387 1.148,-0.863 1.75,-1.25c0.565,-0.363 1.165,-0.671 1.75,-1c2.079,-1.169 4.116,-2.433 6.25,-3.5c1.535,-0.768 3.2,-1.264 4.75,-2c1.783,-0.847 3.509,-1.821 5.25,-2.75c0.756,-0.403 2.25,-1.25 2.25,-1.25" fill="none" stroke="#000000" stroke-width="2"/><path d="M239.3421,183.0772l-0.3,-0.3" fill="none" stroke="#000000" stroke-width="2"/><path d="M307.2921,84.2772c0,0 3.879,-5.203 6,-7.75c0.463,-0.568 0.631,-0.99 1.25,-1c2.023,-0.037 4.139,0.118 6,1c2.58,1.227 4.965,3.145 6.75,5.5c1.478,1.68 1.816,4.12 2.75,6.25c0.234,0.532 0.466,-0.068 0.25,0.25c-0.815,1.234 -1.803,2.282 -2.75,3.5c-1.384,1.696 -4.25,5.25 -4.25,5.25" fill="none" stroke="#000000" stroke-width="2"/><path d="M314.8,75.2719c0,0 4.1263,-5.7494 6.4737,-8.2631c0.5295,-0.6558 0.9389,-1.4242 1.7368,-1.4737c1.78,-0.1684 3.6506,-0.1337 5.3158,0.6316c2.6937,1.2389 5.3526,2.8295 7.3684,5c1.4769,1.6052 2.1685,3.7526 2.579,5.8421c0.2431,0.6937 -0.38,1.3874 -0.7369,2c-0.7705,1.3231 -1.581,2.6242 -2.5263,3.7368c-1.6379,2.0674 -5.2105,5.7895 -5.2105,5.7895" fill="none" stroke="#000000" stroke-width="2.10527"/><path d="M317.0421,81.2772c0,0 -0.167,-0.062 0,0c0.666,0.25 1.372,0.415 2,0.75c0.632,0.337 1.187,0.808 1.75,1.25c0.604,0.474 1.188,0.978 1.75,1.5c0.604,0.561 1.263,1.085 1.75,1.75c0.44,0.6 0.698,1.32 1,2c0.364,0.819 1,2.5 1,2.5" fill="none" stroke="#000000" stroke-width="2"/><path d="M244.0421,174.7772c0.643,0.055 1.285,0.346 1.767,0.769c0.533,0.469 0.886,1.099 1.183,1.731c0.198,0.423 0.36,0.99 0.15,1.5c-0.066,0.282 -0.335,0.202 -0.85,0.5c-2.065,1.195 -4.963,4.166 -6.25,3.5c-1.18,-0.666 -0.028,-3.855 0.25,-5.75c0.113,-0.698 0.129,-1.62 0.75,-2c0.849,-0.502 2.039,-0.337 3,-0.25z" fill="#000000" stroke="none" stroke-width="1"/></g></g></svg>